<svg width="31" height="32" viewBox="0 0 31 32" fill="none" xmlns="http://www.w3.org/2000/svg">
<path d="M27.4889 6.17188H27.0039V5.50781C27.0039 4.40932 26.1891 3.51562 25.1875 3.51562C24.1859 3.51562 23.3711 4.40932 23.3711 5.50781V6.17188H22.1602V2.32031C22.1602 1.22182 21.3453 0.328125 20.3438 0.328125H18.1952C17.8609 0.328125 17.5898 0.625492 17.5898 0.992188C17.5898 1.35888 17.8609 1.65625 18.1952 1.65625H20.3438C20.6776 1.65625 20.9492 1.95415 20.9492 2.32031V6.17188H19.7383V3.64844C19.7383 3.28174 19.4672 2.98438 19.1328 2.98438H11.8672C11.5328 2.98438 11.2617 3.28174 11.2617 3.64844V6.17188H10.0508V2.32031C10.0508 1.95415 10.3224 1.65625 10.6562 1.65625H12.746C13.0804 1.65625 13.3515 1.35888 13.3515 0.992188C13.3515 0.625492 13.0804 0.328125 12.746 0.328125H10.6562C9.65468 0.328125 8.83984 1.22182 8.83984 2.32031V6.17188H7.62891V5.50781C7.62891 4.40932 6.81407 3.51562 5.8125 3.51562C4.81093 3.51562 3.99609 4.40932 3.99609 5.50781V6.17188H3.51111C1.57513 6.17188 0 7.89943 0 10.0228V27.821C0 29.9443 1.57513 31.6719 3.51111 31.6719H27.4889C29.4249 31.6719 31 29.9443 31 27.821V10.0228C31 7.89943 29.4249 6.17188 27.4889 6.17188ZM24.582 5.50781C24.582 5.14165 24.8536 4.84375 25.1875 4.84375C25.5214 4.84375 25.793 5.14165 25.793 5.50781V6.17188H24.582V5.50781ZM12.4727 4.3125H18.5273V6.17188H12.4727V4.3125ZM5.20703 5.50781C5.20703 5.14165 5.47864 4.84375 5.8125 4.84375C6.14636 4.84375 6.41797 5.14165 6.41797 5.50781V6.17188H5.20703V5.50781ZM29.7891 27.821C29.7891 29.2121 28.7572 30.3438 27.4889 30.3438H3.51111C2.24278 30.3438 1.21094 29.2121 1.21094 27.821V10.0228C1.21094 8.6317 2.24278 7.5 3.51111 7.5H27.4889C28.7572 7.5 29.7891 8.6317 29.7891 10.0228V27.821Z" fill="#67D7C1"/>
<path d="M15.5 11.9673C12.0036 11.9673 9.15909 15.0871 9.15909 18.9218C9.15909 22.7566 12.0036 25.8763 15.5 25.8763C18.9963 25.8763 21.8409 22.7565 21.8409 18.9218C21.8409 15.0871 18.9963 11.9673 15.5 11.9673V11.9673ZM15.5 24.5482C12.6713 24.5482 10.37 22.0243 10.37 18.9218C10.37 15.8194 12.6713 13.2954 15.5 13.2954C18.3287 13.2954 20.6299 15.8194 20.6299 18.9218C20.6299 22.0243 18.3287 24.5482 15.5 24.5482V24.5482Z" fill="#67D7C1"/>
<path d="M17.7389 16.9297H17.324V16.4746C17.324 15.7815 16.8099 15.2177 16.178 15.2177H14.8372C14.2053 15.2177 13.6911 15.7815 13.6911 16.4746V16.9297H13.2762C12.6443 16.9297 12.1302 17.4935 12.1302 18.1867V19.6572C12.1302 20.3503 12.6443 20.9141 13.2762 20.9141H13.6911V21.3692C13.6911 22.0623 14.2053 22.6261 14.8372 22.6261H16.178C16.8099 22.6261 17.324 22.0623 17.324 21.3692V20.914H17.7389C18.3709 20.914 18.885 20.3502 18.885 19.6571V18.1866C18.885 17.4935 18.3709 16.9297 17.7389 16.9297ZM17.674 19.5859H16.7186C16.3843 19.5859 16.1131 19.8833 16.1131 20.25V21.2979H14.9022V20.25C14.9022 19.8833 14.6311 19.5859 14.2967 19.5859H13.3413V18.2578H14.2967C14.6311 18.2578 14.9022 17.9604 14.9022 17.5937V16.5458H16.1131V17.5937C16.1131 17.9604 16.3843 18.2578 16.7186 18.2578H17.674V19.5859Z" fill="#67D7C1"/>
<path d="M15.4706 1.65625C15.805 1.65625 16.0761 1.35894 16.0761 0.992188C16.0761 0.625436 15.805 0.328125 15.4706 0.328125C15.1362 0.328125 14.8651 0.625436 14.8651 0.992188C14.8651 1.35894 15.1362 1.65625 15.4706 1.65625Z" fill="#67D7C1"/>
</svg>
