<svg width="44" height="42" viewBox="0 0 44 42" fill="none" xmlns="http://www.w3.org/2000/svg">
<path d="M27.1133 4.264C27.4693 4.264 27.7578 3.9623 27.7578 3.59017V1.5553C27.7578 1.18317 27.4693 0.88147 27.1133 0.88147C26.7572 0.88147 26.4688 1.18317 26.4688 1.5553V3.59017C26.4688 3.9623 26.7572 4.264 27.1133 4.264ZM23.9418 4.38906C24.1184 4.71663 24.5145 4.82489 24.8199 4.64484C25.1299 4.46201 25.2395 4.05107 25.0646 3.72691L24.2473 2.21215C24.0725 1.88808 23.6792 1.77362 23.3692 1.95636C23.0592 2.13919 22.9496 2.55014 23.1245 2.87429L23.9418 4.38906ZM29.4068 4.64484C29.7114 4.82444 30.1081 4.71663 30.2848 4.38906L31.1022 2.87429C31.277 2.55014 31.1676 2.13919 30.8574 1.95636C30.5476 1.77353 30.1543 1.88808 29.9794 2.21215L29.162 3.72691C28.9871 4.05107 29.0966 4.46201 29.4068 4.64484V4.64484ZM41.7966 23.154L36.5716 21.3338C36.2755 21.2305 36.0372 20.9976 35.9181 20.6944L33.0066 13.2888C32.5084 12.0204 31.3383 11.2007 30.0256 11.2007H29.9922V9.98767C29.9922 8.32808 28.7007 6.97791 27.1133 6.97791C25.5258 6.97791 24.2344 8.32808 24.2344 9.98767V11.2007H19.8549C19.8538 11.2007 19.8527 11.2006 19.8516 11.2006C19.8504 11.2006 19.8493 11.2007 19.8482 11.2007H3.22266C1.44564 11.2007 0 12.7121 0 14.5699V19.017C0 19.3891 0.288492 19.6908 0.644531 19.6908C1.00057 19.6908 1.28906 19.3891 1.28906 19.017V14.5699C1.28906 13.4552 2.15652 12.5484 3.22266 12.5484H19.207V27.1029H1.28906V22.1615C1.28906 21.7894 1.00057 21.4877 0.644531 21.4877C0.288492 21.4877 0 21.7894 0 22.1615V32.7632C0 34.621 1.44564 36.1324 3.22266 36.1324H4.87369C5.19363 38.9366 7.48095 41.1185 10.248 41.1185C13.0151 41.1185 15.3025 38.9366 15.6224 36.1324H27.3678C27.6878 38.9366 29.9751 41.1185 32.7422 41.1185C35.5093 41.1185 37.7966 38.9366 38.1165 36.1324H40.7773C42.5544 36.1324 44 34.621 44 32.7632V26.3502C44 24.8973 43.1145 23.6128 41.7966 23.154V23.154ZM10.248 39.7709C7.97345 39.7709 6.12305 37.8363 6.12305 35.4584C6.12305 33.0805 7.97345 31.1459 10.248 31.1459C12.5226 31.1459 14.373 33.0805 14.373 35.4584C14.373 37.8363 12.5226 39.7709 10.248 39.7709ZM19.207 34.7847H15.6224C15.3026 31.9803 13.0151 29.7982 10.248 29.7982C7.48095 29.7982 5.19346 31.9803 4.87369 34.7847H3.22266C2.15652 34.7847 1.28906 33.8779 1.28906 32.7632V28.4506H19.207V34.7847ZM25.5234 9.98767C25.5234 9.07118 26.2366 8.32556 27.1133 8.32556C27.9899 8.32556 28.7031 9.07118 28.7031 9.98767V11.2007H25.5234V9.98767ZM32.7422 39.7709C30.4676 39.7709 28.6172 37.8363 28.6172 35.4584C28.6172 33.0805 30.4676 31.1459 32.7422 31.1459C35.0168 31.1459 36.8672 33.0805 36.8672 35.4584C36.8672 37.8363 35.0168 39.7709 32.7422 39.7709ZM42.7109 27.1029H32.8799C32.5239 27.1029 32.2354 27.4046 32.2354 27.7767C32.2354 28.1489 32.5239 28.4506 32.8799 28.4506H42.7109V32.7632C42.7109 33.8779 41.8435 34.7847 40.7773 34.7847H38.1165C37.7968 31.9803 35.5093 29.7982 32.7422 29.7982C29.9751 29.7982 27.6876 31.9803 27.3678 34.7847H20.4961V28.4506H29.8721C30.2282 28.4506 30.5167 28.1489 30.5167 27.7767C30.5167 27.4046 30.2282 27.1029 29.8721 27.1029H20.4961V12.5484H30.0257C30.8133 12.5484 31.5154 13.0399 31.8143 13.8009L34.7258 21.2067C34.9876 21.8727 35.5119 22.3849 36.1641 22.6122L41.3892 24.4325C42.1798 24.7078 42.7109 25.4784 42.7109 26.3501V27.1029ZM30.6126 14.5996C30.448 14.1721 30.0568 13.8959 29.616 13.8959H22.8594C22.267 13.8959 21.7852 14.3996 21.7852 15.0189V21.2631C21.7852 21.8824 22.267 22.3861 22.8594 22.3861H32.0201C32.7618 22.3919 33.2997 21.5631 33.0167 20.8437L30.6126 14.5996ZM23.0742 21.0385V15.2435H29.4709L31.7021 21.0385H23.0742ZM32.7422 33.4369C31.676 33.4369 30.8086 34.3437 30.8086 35.4584C30.8086 36.5731 31.676 37.4799 32.7422 37.4799C33.8083 37.4799 34.6758 36.5731 34.6758 35.4584C34.6758 34.3437 33.8083 33.4369 32.7422 33.4369ZM32.7422 36.1322C32.3867 36.1322 32.0977 35.83 32.0977 35.4584C32.0977 35.0868 32.3867 34.7845 32.7422 34.7845C33.0976 34.7845 33.3867 35.0868 33.3867 35.4584C33.3867 35.83 33.0976 36.1322 32.7422 36.1322ZM11.0215 13.8959H9.47461C8.83489 13.8959 8.31445 14.44 8.31445 15.1088V17.8041H5.73633C5.09661 17.8041 4.57617 18.3482 4.57617 19.017V20.6342C4.57617 21.303 5.09661 21.847 5.73633 21.847H8.31445V24.5424C8.31445 25.2112 8.83489 25.7553 9.47461 25.7553H11.0215C11.6612 25.7553 12.1816 25.2112 12.1816 24.5424V21.847H14.7598C15.3995 21.847 15.9199 21.303 15.9199 20.6342V19.017C15.9199 18.3482 15.3995 17.8041 14.7598 17.8041H12.1816V15.1088C12.1816 14.44 11.6612 13.8959 11.0215 13.8959ZM14.6309 19.1517V20.4994H11.7949C11.2973 20.4994 10.8926 20.9226 10.8926 21.4428V24.4076H9.60352V21.4428C9.60352 20.9226 9.19875 20.4994 8.70117 20.4994H5.86523V19.1517H8.70117C9.19875 19.1517 9.60352 18.7286 9.60352 18.2084V15.2435H10.8926V18.2084C10.8926 18.7286 11.2973 19.1517 11.7949 19.1517H14.6309ZM10.248 33.4369C9.18191 33.4369 8.31445 34.3437 8.31445 35.4584C8.31445 36.5731 9.18191 37.4799 10.248 37.4799C11.3142 37.4799 12.1816 36.5731 12.1816 35.4584C12.1816 34.3437 11.3142 33.4369 10.248 33.4369ZM10.248 36.1322C9.89261 36.1322 9.60352 35.83 9.60352 35.4584C9.60352 35.0868 9.89261 34.7845 10.248 34.7845C10.6035 34.7845 10.8926 35.0868 10.8926 35.4584C10.8926 35.83 10.6035 36.1322 10.248 36.1322Z" fill="#67D7C1"/>
</svg>
