<svg width="35" height="38" viewBox="0 0 35 38" fill="none" xmlns="http://www.w3.org/2000/svg">
<g clip-path="url(#clip0_1_97)">
<path d="M2.8544 4.66796C1.06008 7.00422 0.637232 10.2669 1.75675 13.0541L1.6115 13.2118C1.21107 13.6465 1.21107 14.3513 1.6115 14.7861C1.81171 15.0035 2.07412 15.1122 2.33647 15.1122C2.59882 15.1122 3.72709 14.0635 3.72709 14.0635C3.72729 14.0632 12.4491 4.59382 12.4493 4.59359L13.115 3.8709C13.5154 3.43615 13.5154 2.73134 13.115 2.29659C12.7146 1.86185 12.0654 1.86185 11.665 2.29659L11.5197 2.4543C9.17615 1.34472 6.46785 1.63134 4.37653 3.17195L1.75525 0.32606C1.35489 -0.108687 0.705656 -0.108687 0.305231 0.32606C-0.0951927 0.760806 -0.0951927 1.46562 0.305231 1.90036L2.8544 4.66796Z" fill="#67D7C1"/>
<path d="M23.1735 31.3949C23.7397 31.3949 24.1988 30.8965 24.1988 30.2817V28.0553H10.8012V30.2817C10.8012 30.8965 11.2603 31.3949 11.8265 31.3949H23.1735Z" fill="#67D7C1"/>
<path d="M33.9736 21.3761H28.9153C28.3514 21.3761 27.89 21.877 27.89 22.4893C27.89 21.8762 27.4294 21.3761 26.8646 21.3761H10.0493C9.48462 21.3761 9.02404 21.8762 9.02397 22.4892C9.02397 21.877 8.56257 21.3761 7.99864 21.3761H1.02642C0.462495 21.3761 0.00109863 21.877 0.00109863 22.4893V24.7158C0.00109863 25.3306 0.460171 25.829 1.02642 25.829H33.9736C34.5398 25.829 34.9989 25.3306 34.9989 24.7158V22.4893C34.9989 21.877 34.5375 21.3761 33.9736 21.3761V21.3761Z" fill="#67D7C1"/>
<path d="M25.873 35.7735H21.2595V33.6213H13.7405V35.7735H8.64761C8.08136 35.7735 7.62228 36.272 7.62228 36.8868C7.62228 37.5016 8.08136 38 8.64761 38H25.873C26.4393 38 26.8984 37.5016 26.8984 36.8868C26.8984 36.272 26.4393 35.7735 25.873 35.7735V35.7735Z" fill="#67D7C1"/>
</g>
<defs>
<clipPath id="clip0_1_97">
<rect width="35" height="38" fill="white"/>
</clipPath>
</defs>
</svg>
