<svg width="42" height="44" viewBox="0 0 42 44" fill="none" xmlns="http://www.w3.org/2000/svg">
<path d="M14.3101 16.3216C14.2335 16.3217 14.1578 16.3054 14.0873 16.274C14.0169 16.2425 13.9533 16.1964 13.9003 16.1385C13.3327 15.5189 11.4791 13.3041 11.3939 10.8175C11.3889 10.6687 11.4373 10.5234 11.5296 10.4102C11.5976 10.3243 11.6395 10.2191 11.6499 10.1081C11.6459 10.0766 11.5931 10.035 11.5738 10.0183C11.4975 9.96048 11.436 9.8836 11.3951 9.79463C11.3542 9.70567 11.335 9.60743 11.3394 9.50878C11.3605 9.06159 11.5381 8.63821 11.8383 8.31959C11.7809 8.22862 11.717 8.14236 11.6471 8.06153C11.562 7.96628 11.5092 7.84436 11.4968 7.71457C11.4844 7.58477 11.513 7.4543 11.5784 7.34326L11.7668 7.02575C11.8344 6.48229 12.1499 4.64737 13.4128 3.75132C13.7442 3.52362 14.1161 3.36821 14.5061 3.29435C14.8962 3.22049 15.2965 3.2297 15.683 3.32143C15.9866 2.57262 16.4911 1.93228 17.1354 1.47818C18.3154 0.649913 19.9035 0.437048 21.8593 0.844346C26.8499 1.89024 28.0299 3.79235 28.6622 5.03386C29.0972 5.22138 29.4566 5.56118 29.6792 5.99532C29.8361 6.33784 29.879 6.72546 29.8013 7.09651C30.1954 7.51677 30.4674 8.04568 30.5857 8.62164C30.7866 9.54564 30.6742 13.8077 28.0407 16.0136C27.9517 16.088 27.8433 16.1327 27.7298 16.1417C27.6162 16.1508 27.5027 16.1238 27.4039 16.0643C27.3052 16.0049 27.2258 15.9157 27.1761 15.8084C27.1264 15.701 27.1087 15.5805 27.1252 15.4625C27.1581 15.2286 27.185 14.9983 27.2058 14.7715C27.2469 14.3072 27.1959 13.839 27.056 13.3963C26.916 12.9536 26.6901 12.5461 26.3924 12.1993C26.0948 11.8526 25.7319 11.5741 25.3265 11.3814C24.9212 11.1887 24.4822 11.086 24.0371 11.0797C22.5225 11.034 21.0407 10.6078 19.7162 9.83699L19.5805 9.76207C19.0916 9.49454 18.5448 9.36452 17.9935 9.38474C17.4423 9.40496 16.9055 9.57472 16.4356 9.87743C15.9579 10.179 15.5631 10.6054 15.2899 11.1149C15.0168 11.6244 14.8748 12.1995 14.8777 12.7838V15.727C14.8776 15.8458 14.8437 15.9618 14.7801 16.0602C14.7166 16.1585 14.6264 16.2347 14.5212 16.2788C14.4542 16.3073 14.3824 16.3218 14.3101 16.3216V16.3216ZM12.5393 10.9655C12.6872 12.0854 13.1009 13.1484 13.7425 14.0574V12.7838C13.7414 11.9998 13.9327 11.2288 14.2981 10.5446C14.6636 9.86046 15.1907 9.28624 15.8291 8.87712C16.4674 8.46799 17.1955 8.23771 17.9433 8.20838C18.6911 8.17905 19.4335 8.35166 20.0993 8.70964L20.2491 8.79229C21.4143 9.47298 22.7183 9.85101 24.0518 9.89467C25.1113 9.90985 26.1293 10.3286 26.9156 11.0727C27.7018 11.8167 28.2027 12.8352 28.3245 13.9379C29.2111 12.4183 29.6132 10.6427 29.4727 8.8678C29.3657 8.43053 29.1314 8.039 28.8024 7.74759C28.708 7.66721 28.6406 7.55737 28.6099 7.43405C28.5793 7.31073 28.5871 7.18039 28.6321 7.06202C28.6758 6.98014 28.7011 6.88885 28.7059 6.79516C28.7107 6.70147 28.695 6.60787 28.6599 6.52153C28.5273 6.3134 28.3306 6.15916 28.1025 6.08451C28.0287 6.06206 27.96 6.02413 27.9006 5.97303C27.8412 5.92192 27.7923 5.85871 27.7569 5.78721C27.2035 4.6777 26.3698 3.0051 21.6391 2.01391C19.9931 1.67143 18.6911 1.82305 17.7751 2.46818C17.2094 2.86322 16.7984 3.45844 16.6172 4.14494C16.6019 4.22682 16.5702 4.3044 16.5244 4.37262C16.4785 4.44084 16.4194 4.49819 16.351 4.54092C16.2826 4.58366 16.2064 4.61083 16.1273 4.62067C16.0482 4.6305 15.968 4.62279 15.8919 4.59802C15.5969 4.47014 15.2776 4.41583 14.9592 4.43935C14.6407 4.46288 14.3319 4.56361 14.057 4.73359C13.0438 5.4471 12.8861 7.25705 12.8844 7.27548C12.8768 7.36933 12.8482 7.45998 12.8009 7.54007L12.7572 7.6138C12.9722 7.89739 13.0726 8.25787 13.037 8.61808C13.012 8.74788 12.9577 8.86954 12.8787 8.97295C12.7997 9.07636 12.6984 9.15854 12.583 9.21267C12.5548 9.24709 12.5344 9.28774 12.5234 9.33159C12.6639 9.51341 12.7524 9.73314 12.7788 9.96543C12.8068 10.3174 12.7225 10.6691 12.5393 10.9655V10.9655ZM12.0892 8.14597L12.0727 8.15489L12.0892 8.14597Z" fill="#67D7C1"/>
<path d="M21.0148 25.9916C18.7661 25.9279 17.2524 24.2524 15.7886 22.6321C15.6319 22.4585 15.4753 22.2849 15.3181 22.1142C14.2637 20.9312 13.6979 19.3599 13.7436 17.7422V15.5511C13.7436 15.3934 13.8034 15.2421 13.9099 15.1306C14.0163 15.0191 14.1607 14.9565 14.3112 14.9565C14.4617 14.9565 14.6061 15.0191 14.7125 15.1306C14.819 15.2421 14.8788 15.3934 14.8788 15.5511V17.785C14.8516 19.0782 15.302 20.3326 16.1359 21.2865C16.2954 21.4602 16.4544 21.6362 16.6133 21.8122C17.9754 23.323 19.2672 24.75 21.0148 24.8006C22.7311 24.75 24.0229 23.323 25.385 21.8116C25.544 21.6362 25.7029 21.4602 25.8618 21.2865C26.6892 20.3431 27.1401 19.1035 27.1218 17.8224V15.5487C27.1218 15.391 27.1816 15.2398 27.288 15.1283C27.3945 15.0167 27.5388 14.9541 27.6894 14.9541C27.8399 14.9541 27.9843 15.0167 28.0907 15.1283C28.1971 15.2398 28.2569 15.391 28.2569 15.5487V17.7826C28.293 19.3862 27.7271 20.9407 26.6808 22.1118C26.5236 22.2825 26.3675 22.4561 26.2109 22.6291C24.746 24.2524 23.2328 25.9279 21.0148 25.9916V25.9916Z" fill="#67D7C1"/>
<path d="M14.0569 18.581C12.898 18.581 11.9569 17.3918 11.9569 15.9315C11.95 15.5349 12.0215 15.141 12.167 14.7747C12.3126 14.4084 12.529 14.0777 12.8026 13.8035C12.9149 13.6984 13.0625 13.6443 13.2128 13.6532C13.3632 13.662 13.504 13.7331 13.6043 13.8507C13.7046 13.9684 13.7562 14.123 13.7478 14.2805C13.7393 14.438 13.6715 14.5855 13.5592 14.6906C13.4042 14.8527 13.2827 15.0466 13.2023 15.2601C13.1219 15.4736 13.0844 15.7022 13.0921 15.9315C13.0921 16.7782 13.6256 17.4775 14.1659 17.3823C14.3144 17.3562 14.4667 17.393 14.5893 17.4846C14.712 17.5761 14.7948 17.7149 14.8198 17.8705C14.8447 18.0261 14.8096 18.1856 14.7222 18.3141C14.6348 18.4425 14.5023 18.5294 14.3538 18.5555C14.2557 18.5725 14.1564 18.581 14.0569 18.581Z" fill="#67D7C1"/>
<path d="M27.9414 18.581C27.8423 18.5811 27.7433 18.5723 27.6457 18.5549C27.4983 18.5274 27.3673 18.44 27.2812 18.3119C27.195 18.1837 27.1607 18.0251 27.1856 17.8705C27.2105 17.7159 27.2927 17.5779 27.4142 17.4865C27.5358 17.3951 27.6869 17.3576 27.8347 17.3823C28.3721 17.4781 28.9079 16.7782 28.9079 15.9315C28.9157 15.7022 28.8783 15.4737 28.798 15.2602C28.7178 15.0467 28.5963 14.8528 28.4414 14.6906C28.3858 14.6386 28.3405 14.5756 28.3082 14.5052C28.2758 14.4348 28.257 14.3585 28.2528 14.2805C28.2443 14.123 28.2959 13.9684 28.3963 13.8507C28.4966 13.7331 28.6374 13.662 28.7878 13.6532C28.9381 13.6443 29.0857 13.6984 29.198 13.8035C29.4714 14.0779 29.6876 14.4086 29.8331 14.7748C29.9785 15.1411 30.05 15.5349 30.0431 15.9315C30.0431 17.3924 29.1003 18.581 27.9414 18.581V18.581Z" fill="#67D7C1"/>
<path d="M18.5544 32.0784C18.5379 32.0784 18.5209 32.0784 18.5038 32.0784C18.4177 32.0702 18.3344 32.0416 18.2605 31.9946C18.1865 31.9476 18.1238 31.8835 18.077 31.8072L15.5014 27.6011C15.4395 27.5 15.4083 27.3816 15.4118 27.2616C15.4154 27.1416 15.4535 27.0255 15.5213 26.9286L16.4861 25.5539C16.5724 25.4305 16.7008 25.3467 16.8446 25.3199C16.9883 25.2931 17.1364 25.3253 17.258 25.41L21.3156 28.2385C21.3834 28.2865 21.4405 28.3493 21.483 28.4225C21.5255 28.4958 21.5523 28.5778 21.5617 28.663C21.5711 28.7482 21.5628 28.8345 21.5373 28.916C21.5119 28.9974 21.4699 29.0722 21.4143 29.1351L18.9698 31.8881C18.9168 31.948 18.8525 31.9958 18.781 32.0286C18.7095 32.0613 18.6324 32.0783 18.5544 32.0784V32.0784ZM16.6672 27.3002L18.6372 30.5176L20.1288 28.8378L17.0787 26.7121L16.6672 27.3002Z" fill="#67D7C1"/>
<path d="M23.4434 32.0784C23.3654 32.0784 23.2883 32.0615 23.2168 32.0289C23.1453 31.9963 23.081 31.9486 23.0279 31.8887L20.584 29.1352C20.528 29.0721 20.4857 28.997 20.4601 28.9152C20.4345 28.8333 20.4262 28.7466 20.4358 28.661C20.4453 28.5755 20.4725 28.4931 20.5154 28.4196C20.5584 28.3462 20.616 28.2834 20.6844 28.2355L24.742 25.4071C24.8636 25.3224 25.0117 25.2901 25.1555 25.3169C25.2992 25.3437 25.4276 25.4275 25.5139 25.5509L26.4787 26.9256C26.5466 27.0225 26.5848 27.1385 26.5885 27.2586C26.5921 27.3786 26.561 27.497 26.4992 27.5981L23.9213 31.8049C23.8746 31.8812 23.8118 31.9453 23.7379 31.9923C23.6639 32.0393 23.5806 32.0679 23.4945 32.076C23.4774 32.0772 23.4604 32.0784 23.4434 32.0784ZM21.8695 28.8379L23.3611 30.517L25.3311 27.2996L24.9196 26.7122L21.8695 28.8379Z" fill="#67D7C1"/>
<path d="M34.8362 43.6135H6.59628C6.03932 43.6135 5.50518 43.3817 5.11135 42.9691C4.71753 42.5566 4.49628 41.997 4.49628 41.4135V36.1079C4.49063 34.4355 4.99929 32.8056 5.94691 31.4597C6.89453 30.1137 8.23074 29.1233 9.75763 28.6351L15.9203 26.7466C16.0648 26.7024 16.2201 26.7201 16.3522 26.7959C16.4842 26.8717 16.5821 26.9993 16.6243 27.1507C16.6666 27.3021 16.6497 27.4648 16.5773 27.6031C16.505 27.7415 16.3832 27.844 16.2387 27.8883L10.0857 29.7737C8.79269 30.1889 7.66155 31.029 6.8595 32.1697C6.05745 33.3104 5.62707 34.6912 5.63198 36.1079V41.4135C5.63198 41.6816 5.73364 41.9387 5.91458 42.1283C6.09553 42.3178 6.34095 42.4243 6.59685 42.4243H34.8362C35.0921 42.4243 35.3375 42.3178 35.5184 42.1283C35.6994 41.9387 35.801 41.6816 35.801 41.4135V35.5133C35.8059 34.0951 35.3745 32.7129 34.5708 31.5715C33.7671 30.4302 32.6338 29.5905 31.3388 29.1768L25.8976 27.9281C25.7505 27.8944 25.6222 27.8008 25.541 27.668C25.4598 27.5352 25.4323 27.374 25.4645 27.2199C25.4967 27.0659 25.586 26.9315 25.7128 26.8464C25.8396 26.7614 25.9934 26.7325 26.1405 26.7663L31.6277 28.025C33.1644 28.5069 34.5113 29.496 35.4678 30.845C36.4243 32.1939 36.9391 33.8306 36.9356 35.511V41.4135C36.9356 41.9969 36.7144 42.5564 36.3207 42.9689C35.927 43.3815 35.393 43.6134 34.8362 43.6135V43.6135Z" fill="#67D7C1"/>
<path d="M21 29.323C20.8881 29.3233 20.7787 29.2887 20.6856 29.2237L16.6297 26.3999C16.5395 26.337 16.4684 26.2484 16.4248 26.1445C16.3811 26.0406 16.3668 25.9258 16.3834 25.8137L16.7563 23.3164C16.767 23.2385 16.7923 23.1636 16.8308 23.0961C16.8693 23.0285 16.9203 22.9697 16.9807 22.9229C17.041 22.8761 17.1097 22.8424 17.1826 22.8236C17.2555 22.8048 17.3313 22.8014 17.4055 22.8135C17.4797 22.8256 17.5509 22.853 17.6149 22.8942C17.6789 22.9353 17.7345 22.9894 17.7784 23.0532C17.8224 23.117 17.8538 23.1893 17.8708 23.2659C17.8879 23.3425 17.8903 23.4219 17.8778 23.4995L17.5605 25.624L21 28.0149L24.4417 25.6186L24.1216 23.4948C24.1092 23.4172 24.1116 23.3378 24.1286 23.2611C24.1457 23.1845 24.1771 23.1122 24.221 23.0484C24.265 22.9846 24.3205 22.9306 24.3846 22.8894C24.4486 22.8483 24.5197 22.8208 24.5939 22.8087C24.6682 22.7966 24.7439 22.8 24.8168 22.8188C24.8898 22.8376 24.9584 22.8714 25.0188 22.9181C25.0792 22.9649 25.1301 23.0238 25.1686 23.0913C25.2071 23.1589 25.2325 23.2337 25.2432 23.3116L25.616 25.8089C25.6328 25.9212 25.6185 26.0361 25.5748 26.1401C25.5312 26.2441 25.46 26.3328 25.3697 26.3958L21.311 29.2207C21.2191 29.2859 21.111 29.3215 21 29.323V29.323Z" fill="#67D7C1"/>
<path d="M32.7997 38.0659C32.7576 38.0667 32.7156 38.0627 32.6743 38.054L31.7503 37.8346C31.6762 37.8189 31.6058 37.7878 31.5433 37.7432C31.4808 37.6986 31.4274 37.6413 31.3864 37.5748C31.3453 37.5082 31.3173 37.4338 31.3041 37.3557C31.2909 37.2777 31.2927 37.1977 31.3094 37.1204C31.3261 37.0432 31.3574 36.9702 31.4015 36.9057C31.4455 36.8413 31.5014 36.7867 31.5658 36.7453C31.6303 36.7038 31.702 36.6762 31.7767 36.6642C31.8515 36.6521 31.9278 36.6559 32.0012 36.6752L32.3712 36.7626L32.7765 34.8896C32.8437 34.6055 32.8561 34.3103 32.813 34.0211C32.7699 33.7319 32.6721 33.4547 32.5255 33.2056C32.3788 32.9565 32.1862 32.7405 31.9589 32.5704C31.7315 32.4003 31.4741 32.2793 31.2016 32.2147C30.9291 32.1501 30.6471 32.1432 30.372 32.1942C30.0969 32.2452 29.8343 32.3532 29.5996 32.5119C29.3648 32.6706 29.1626 32.8767 29.0049 33.1183C28.8472 33.3598 28.737 33.6319 28.6809 33.9186L28.2762 35.791L28.6463 35.879C28.7931 35.9138 28.9208 36.0083 29.0011 36.1416C29.0815 36.275 29.108 36.4363 29.0748 36.5902C29.0416 36.744 28.9514 36.8777 28.8241 36.9619C28.6968 37.0461 28.5428 37.0738 28.396 37.0391L27.4703 36.8173C27.3974 36.8 27.3284 36.7679 27.2674 36.7226C27.2064 36.6774 27.1546 36.62 27.1148 36.5537C27.0751 36.4874 27.0482 36.4135 27.0357 36.3363C27.0233 36.2591 27.0255 36.1801 27.0423 36.1038L27.5724 33.6505C27.6664 33.2163 27.841 32.8058 28.0864 32.4424C28.3318 32.079 28.6431 31.7697 29.0026 31.5323C29.3621 31.295 29.7626 31.1341 30.1814 31.0589C30.6003 30.9837 31.0291 30.9956 31.4435 31.094C31.8579 31.1924 32.2498 31.3754 32.5967 31.6325C32.9436 31.8896 33.2388 32.2157 33.4654 32.5923C33.692 32.9689 33.8456 33.3885 33.9174 33.8273C33.9891 34.266 33.9777 34.7153 33.8838 35.1495L33.3537 37.6022C33.3253 37.7338 33.2551 37.8514 33.1546 37.9356C33.054 38.0199 32.9291 38.0659 32.8003 38.0659H32.7997Z" fill="#67D7C1"/>
<path d="M10.2838 33.2021C10.1547 33.2019 10.0295 33.1556 9.92889 33.0709C9.82829 32.9862 9.75826 32.868 9.73038 32.736L9.03738 29.4538C9.02128 29.3776 9.01968 29.2987 9.03266 29.2218C9.04564 29.1449 9.07294 29.0715 9.11303 29.0056C9.15311 28.9398 9.20517 28.8829 9.26626 28.8381C9.32734 28.7933 9.39624 28.7616 9.46902 28.7447C9.5418 28.7279 9.61704 28.7262 9.69044 28.7398C9.76385 28.7534 9.83397 28.782 9.89682 28.824C9.95967 28.866 10.014 28.9205 10.0567 28.9845C10.0995 29.0485 10.1297 29.1207 10.1458 29.1969L10.8388 32.4791C10.8713 32.6331 10.844 32.7943 10.763 32.9272C10.682 33.0601 10.5539 33.1539 10.4069 33.1879C10.3665 33.1975 10.3252 33.2023 10.2838 33.2021Z" fill="#67D7C1"/>
<path d="M31.3473 32.2746C31.3063 32.2744 31.2654 32.2698 31.2253 32.2609C31.1525 32.2442 31.0835 32.2126 31.0223 32.168C30.9611 32.1234 30.909 32.0666 30.8687 32.0008C30.8285 31.935 30.8011 31.8616 30.7879 31.7847C30.7748 31.7079 30.7763 31.629 30.7922 31.5527L31.3995 28.6452C31.4318 28.4911 31.5211 28.3568 31.6478 28.2717C31.7746 28.1866 31.9284 28.1578 32.0755 28.1915C32.2226 28.2253 32.3508 28.3188 32.432 28.4516C32.5132 28.5844 32.5408 28.7456 32.5086 28.8997L31.9013 31.8072C31.8736 31.9396 31.8036 32.0581 31.7028 32.1431C31.6021 32.2281 31.4767 32.2745 31.3473 32.2746V32.2746Z" fill="#67D7C1"/>
<path d="M11.1028 37.3874C10.5787 37.3876 10.0664 37.2249 9.63068 36.92C9.19491 36.615 8.85524 36.1816 8.65463 35.6744C8.45401 35.1673 8.40147 34.6092 8.50363 34.0707C8.60579 33.5323 8.85808 33.0377 9.22858 32.6495C9.59909 32.2612 10.0712 31.9968 10.5851 31.8897C11.0991 31.7825 11.6318 31.8375 12.1159 32.0475C12.6001 32.2576 13.0139 32.6133 13.3051 33.0698C13.5962 33.5262 13.7516 34.0629 13.7516 34.6119C13.751 35.3477 13.4718 36.0532 12.9751 36.5736C12.4785 37.0939 11.8051 37.3866 11.1028 37.3874V37.3874ZM11.1028 33.0261C10.8032 33.026 10.5104 33.1189 10.2613 33.2932C10.0122 33.4675 9.81798 33.7152 9.7033 34.0051C9.58862 34.295 9.55858 34.614 9.61699 34.9218C9.6754 35.2296 9.81964 35.5123 10.0314 35.7342C10.2433 35.9561 10.5131 36.1072 10.8069 36.1684C11.1007 36.2296 11.4052 36.1981 11.6819 36.078C11.9587 35.9578 12.1952 35.7544 12.3615 35.4934C12.5278 35.2325 12.6166 34.9257 12.6165 34.6119C12.616 34.1914 12.4564 33.7884 12.1726 33.4911C11.8888 33.1938 11.5041 33.0266 11.1028 33.0261V33.0261Z" fill="#67D7C1"/>
<path d="M11.1028 35.5104C11.5764 35.5104 11.9604 35.1081 11.9604 34.6119C11.9604 34.1157 11.5764 33.7135 11.1028 33.7135C10.6291 33.7135 10.2452 34.1157 10.2452 34.6119C10.2452 35.1081 10.6291 35.5104 11.1028 35.5104Z" fill="#67D7C1"/>
<path d="M11.1028 35.8083C10.8769 35.8084 10.656 35.7384 10.4682 35.607C10.2803 35.4756 10.1338 35.2888 10.0473 35.0702C9.96081 34.8516 9.93811 34.6111 9.98211 34.379C10.0261 34.1468 10.1348 33.9336 10.2945 33.7663C10.4542 33.5989 10.6577 33.4849 10.8792 33.4387C11.1007 33.3925 11.3304 33.4161 11.5391 33.5067C11.7478 33.5972 11.9261 33.7505 12.0516 33.9473C12.1771 34.144 12.2441 34.3753 12.2441 34.612C12.2438 34.9291 12.1235 35.2331 11.9095 35.4574C11.6956 35.6816 11.4054 35.8078 11.1028 35.8083ZM11.1028 34.0108C10.9891 34.0107 10.878 34.0459 10.7834 34.112C10.6889 34.1781 10.6152 34.272 10.5716 34.382C10.5281 34.492 10.5167 34.613 10.5388 34.7298C10.561 34.8466 10.6157 34.9539 10.696 35.0381C10.7764 35.1223 10.8788 35.1796 10.9903 35.2028C11.1017 35.226 11.2173 35.214 11.3223 35.1684C11.4272 35.1228 11.5169 35.0456 11.58 34.9465C11.6431 34.8475 11.6767 34.731 11.6766 34.612C11.6764 34.4526 11.6159 34.2998 11.5083 34.1871C11.4008 34.0744 11.2549 34.011 11.1028 34.0108V34.0108Z" fill="#67D7C1"/>
</svg>
