<svg width="145" height="126" viewBox="0 0 145 126" fill="none" xmlns="http://www.w3.org/2000/svg">
<g opacity="0.26">
<mask id="mask0_1_259" style="mask-type:alpha" maskUnits="userSpaceOnUse" x="0" y="0" width="12" height="12">
<path d="M5.73224 11.363C8.89807 11.363 11.4645 8.81927 11.4645 5.68147C11.4645 2.54367 8.89807 0 5.73224 0C2.56641 0 0 2.54367 0 5.68147C0 8.81927 2.56641 11.363 5.73224 11.363Z" fill="url(#paint0_linear_1_259)"/>
</mask>
<g mask="url(#mask0_1_259)">
<path d="M5.73224 11.363C8.89807 11.363 11.4645 8.81927 11.4645 5.68147C11.4645 2.54367 8.89807 0 5.73224 0C2.56641 0 0 2.54367 0 5.68147C0 8.81927 2.56641 11.363 5.73224 11.363Z" fill="url(#paint1_linear_1_259)"/>
</g>
<mask id="mask1_1_259" style="mask-type:alpha" maskUnits="userSpaceOnUse" x="33" y="0" width="12" height="12">
<path d="M38.9315 11.363C42.0974 11.363 44.6638 8.81927 44.6638 5.68147C44.6638 2.54367 42.0974 0 38.9315 0C35.7657 0 33.1993 2.54367 33.1993 5.68147C33.1993 8.81927 35.7657 11.363 38.9315 11.363Z" fill="url(#paint2_linear_1_259)"/>
</mask>
<g mask="url(#mask1_1_259)">
<path d="M38.9315 11.363C42.0974 11.363 44.6638 8.81927 44.6638 5.68147C44.6638 2.54367 42.0974 0 38.9315 0C35.7657 0 33.1993 2.54367 33.1993 5.68147C33.1993 8.81927 35.7657 11.363 38.9315 11.363Z" fill="url(#paint3_linear_1_259)"/>
</g>
<mask id="mask2_1_259" style="mask-type:alpha" maskUnits="userSpaceOnUse" x="66" y="0" width="12" height="12">
<path d="M72.1308 11.363C75.2966 11.363 77.8631 8.81927 77.8631 5.68147C77.8631 2.54367 75.2966 0 72.1308 0C68.965 0 66.3986 2.54367 66.3986 5.68147C66.3986 8.81927 68.965 11.363 72.1308 11.363Z" fill="url(#paint4_linear_1_259)"/>
</mask>
<g mask="url(#mask2_1_259)">
<path d="M72.1308 11.363C75.2966 11.363 77.8631 8.81927 77.8631 5.68147C77.8631 2.54367 75.2966 0 72.1308 0C68.965 0 66.3986 2.54367 66.3986 5.68147C66.3986 8.81927 68.965 11.363 72.1308 11.363Z" fill="url(#paint5_linear_1_259)"/>
</g>
<mask id="mask3_1_259" style="mask-type:alpha" maskUnits="userSpaceOnUse" x="99" y="0" width="13" height="12">
<path d="M105.33 11.363C108.496 11.363 111.062 8.81927 111.062 5.68147C111.062 2.54367 108.496 0 105.33 0C102.164 0 99.5978 2.54367 99.5978 5.68147C99.5978 8.81927 102.164 11.363 105.33 11.363Z" fill="url(#paint6_linear_1_259)"/>
</mask>
<g mask="url(#mask3_1_259)">
<path d="M105.33 11.363C108.496 11.363 111.062 8.81927 111.062 5.68147C111.062 2.54367 108.496 0 105.33 0C102.164 0 99.5978 2.54367 99.5978 5.68147C99.5978 8.81927 102.164 11.363 105.33 11.363Z" fill="url(#paint7_linear_1_259)"/>
</g>
<mask id="mask4_1_259" style="mask-type:alpha" maskUnits="userSpaceOnUse" x="132" y="0" width="13" height="12">
<path d="M138.529 11.363C141.695 11.363 144.262 8.81927 144.262 5.68147C144.262 2.54367 141.695 0 138.529 0C135.363 0 132.797 2.54367 132.797 5.68147C132.797 8.81927 135.363 11.363 138.529 11.363Z" fill="url(#paint8_linear_1_259)"/>
</mask>
<g mask="url(#mask4_1_259)">
<path d="M138.529 11.363C141.695 11.363 144.262 8.81927 144.262 5.68147C144.262 2.54367 141.695 0 138.529 0C135.363 0 132.797 2.54367 132.797 5.68147C132.797 8.81927 135.363 11.363 138.529 11.363Z" fill="url(#paint9_linear_1_259)"/>
</g>
<mask id="mask5_1_259" style="mask-type:alpha" maskUnits="userSpaceOnUse" x="0" y="28" width="12" height="12">
<path d="M5.7323 39.8888C8.89813 39.8888 11.4646 37.3451 11.4646 34.2073C11.4646 31.0695 8.89813 28.5259 5.7323 28.5259C2.56647 28.5259 6.10352e-05 31.0695 6.10352e-05 34.2073C6.10352e-05 37.3451 2.56647 39.8888 5.7323 39.8888Z" fill="url(#paint10_linear_1_259)"/>
</mask>
<g mask="url(#mask5_1_259)">
<path d="M5.7323 39.8888C8.89813 39.8888 11.4646 37.3451 11.4646 34.2073C11.4646 31.0695 8.89813 28.5259 5.7323 28.5259C2.56647 28.5259 6.10352e-05 31.0695 6.10352e-05 34.2073C6.10352e-05 37.3451 2.56647 39.8888 5.7323 39.8888Z" fill="url(#paint11_linear_1_259)"/>
</g>
<mask id="mask6_1_259" style="mask-type:alpha" maskUnits="userSpaceOnUse" x="33" y="28" width="12" height="12">
<path d="M38.9315 39.8888C42.0974 39.8888 44.6638 37.3451 44.6638 34.2073C44.6638 31.0695 42.0974 28.5259 38.9315 28.5259C35.7657 28.5259 33.1993 31.0695 33.1993 34.2073C33.1993 37.3451 35.7657 39.8888 38.9315 39.8888Z" fill="url(#paint12_linear_1_259)"/>
</mask>
<g mask="url(#mask6_1_259)">
<path d="M38.9315 39.8888C42.0974 39.8888 44.6638 37.3451 44.6638 34.2073C44.6638 31.0695 42.0974 28.5259 38.9315 28.5259C35.7657 28.5259 33.1993 31.0695 33.1993 34.2073C33.1993 37.3451 35.7657 39.8888 38.9315 39.8888Z" fill="url(#paint13_linear_1_259)"/>
</g>
<mask id="mask7_1_259" style="mask-type:alpha" maskUnits="userSpaceOnUse" x="66" y="28" width="12" height="12">
<path d="M72.1308 39.8888C75.2966 39.8888 77.8631 37.3451 77.8631 34.2073C77.8631 31.0695 75.2966 28.5259 72.1308 28.5259C68.965 28.5259 66.3986 31.0695 66.3986 34.2073C66.3986 37.3451 68.965 39.8888 72.1308 39.8888Z" fill="url(#paint14_linear_1_259)"/>
</mask>
<g mask="url(#mask7_1_259)">
<path d="M72.1308 39.8888C75.2966 39.8888 77.8631 37.3451 77.8631 34.2073C77.8631 31.0695 75.2966 28.5259 72.1308 28.5259C68.965 28.5259 66.3986 31.0695 66.3986 34.2073C66.3986 37.3451 68.965 39.8888 72.1308 39.8888Z" fill="url(#paint15_linear_1_259)"/>
</g>
<mask id="mask8_1_259" style="mask-type:alpha" maskUnits="userSpaceOnUse" x="99" y="28" width="13" height="12">
<path d="M105.33 39.8888C108.496 39.8888 111.062 37.3451 111.062 34.2073C111.062 31.0695 108.496 28.5259 105.33 28.5259C102.164 28.5259 99.5978 31.0695 99.5978 34.2073C99.5978 37.3451 102.164 39.8888 105.33 39.8888Z" fill="url(#paint16_linear_1_259)"/>
</mask>
<g mask="url(#mask8_1_259)">
<path d="M105.33 39.8888C108.496 39.8888 111.062 37.3451 111.062 34.2073C111.062 31.0695 108.496 28.5259 105.33 28.5259C102.164 28.5259 99.5978 31.0695 99.5978 34.2073C99.5978 37.3451 102.164 39.8888 105.33 39.8888Z" fill="url(#paint17_linear_1_259)"/>
</g>
<mask id="mask9_1_259" style="mask-type:alpha" maskUnits="userSpaceOnUse" x="132" y="28" width="13" height="12">
<path d="M138.529 39.8888C141.695 39.8888 144.262 37.3451 144.262 34.2073C144.262 31.0695 141.695 28.5259 138.529 28.5259C135.363 28.5259 132.797 31.0695 132.797 34.2073C132.797 37.3451 135.363 39.8888 138.529 39.8888Z" fill="url(#paint18_linear_1_259)"/>
</mask>
<g mask="url(#mask9_1_259)">
<path d="M138.529 39.8888C141.695 39.8888 144.262 37.3451 144.262 34.2073C144.262 31.0695 141.695 28.5259 138.529 28.5259C135.363 28.5259 132.797 31.0695 132.797 34.2073C132.797 37.3451 135.363 39.8888 138.529 39.8888Z" fill="url(#paint19_linear_1_259)"/>
</g>
<mask id="mask10_1_259" style="mask-type:alpha" maskUnits="userSpaceOnUse" x="0" y="56" width="12" height="13">
<path d="M5.7323 68.3554C8.89813 68.3554 11.4646 65.8118 11.4646 62.6739C11.4646 59.5361 8.89813 56.9924 5.7323 56.9924C2.56647 56.9924 6.10352e-05 59.5361 6.10352e-05 62.6739C6.10352e-05 65.8118 2.56647 68.3554 5.7323 68.3554Z" fill="url(#paint20_linear_1_259)"/>
</mask>
<g mask="url(#mask10_1_259)">
<path d="M5.7323 68.3554C8.89813 68.3554 11.4646 65.8118 11.4646 62.6739C11.4646 59.5361 8.89813 56.9924 5.7323 56.9924C2.56647 56.9924 6.10352e-05 59.5361 6.10352e-05 62.6739C6.10352e-05 65.8118 2.56647 68.3554 5.7323 68.3554Z" fill="url(#paint21_linear_1_259)"/>
</g>
<mask id="mask11_1_259" style="mask-type:alpha" maskUnits="userSpaceOnUse" x="33" y="56" width="12" height="13">
<path d="M38.9315 68.3554C42.0974 68.3554 44.6638 65.8118 44.6638 62.6739C44.6638 59.5361 42.0974 56.9924 38.9315 56.9924C35.7657 56.9924 33.1993 59.5361 33.1993 62.6739C33.1993 65.8118 35.7657 68.3554 38.9315 68.3554Z" fill="url(#paint22_linear_1_259)"/>
</mask>
<g mask="url(#mask11_1_259)">
<path d="M38.9315 68.3554C42.0974 68.3554 44.6638 65.8118 44.6638 62.6739C44.6638 59.5361 42.0974 56.9924 38.9315 56.9924C35.7657 56.9924 33.1993 59.5361 33.1993 62.6739C33.1993 65.8118 35.7657 68.3554 38.9315 68.3554Z" fill="url(#paint23_linear_1_259)"/>
</g>
<mask id="mask12_1_259" style="mask-type:alpha" maskUnits="userSpaceOnUse" x="66" y="56" width="12" height="13">
<path d="M72.1308 68.3554C75.2966 68.3554 77.8631 65.8118 77.8631 62.6739C77.8631 59.5361 75.2966 56.9924 72.1308 56.9924C68.965 56.9924 66.3986 59.5361 66.3986 62.6739C66.3986 65.8118 68.965 68.3554 72.1308 68.3554Z" fill="url(#paint24_linear_1_259)"/>
</mask>
<g mask="url(#mask12_1_259)">
<path d="M72.1308 68.3554C75.2966 68.3554 77.8631 65.8118 77.8631 62.6739C77.8631 59.5361 75.2966 56.9924 72.1308 56.9924C68.965 56.9924 66.3986 59.5361 66.3986 62.6739C66.3986 65.8118 68.965 68.3554 72.1308 68.3554Z" fill="url(#paint25_linear_1_259)"/>
</g>
<mask id="mask13_1_259" style="mask-type:alpha" maskUnits="userSpaceOnUse" x="99" y="56" width="13" height="13">
<path d="M105.33 68.3554C108.496 68.3554 111.062 65.8118 111.062 62.6739C111.062 59.5361 108.496 56.9924 105.33 56.9924C102.164 56.9924 99.5978 59.5361 99.5978 62.6739C99.5978 65.8118 102.164 68.3554 105.33 68.3554Z" fill="url(#paint26_linear_1_259)"/>
</mask>
<g mask="url(#mask13_1_259)">
<path d="M105.33 68.3554C108.496 68.3554 111.062 65.8118 111.062 62.6739C111.062 59.5361 108.496 56.9924 105.33 56.9924C102.164 56.9924 99.5978 59.5361 99.5978 62.6739C99.5978 65.8118 102.164 68.3554 105.33 68.3554Z" fill="url(#paint27_linear_1_259)"/>
</g>
<mask id="mask14_1_259" style="mask-type:alpha" maskUnits="userSpaceOnUse" x="132" y="56" width="13" height="13">
<path d="M138.529 68.3554C141.695 68.3554 144.262 65.8118 144.262 62.6739C144.262 59.5361 141.695 56.9924 138.529 56.9924C135.363 56.9924 132.797 59.5361 132.797 62.6739C132.797 65.8118 135.363 68.3554 138.529 68.3554Z" fill="url(#paint28_linear_1_259)"/>
</mask>
<g mask="url(#mask14_1_259)">
<path d="M138.529 68.3554C141.695 68.3554 144.262 65.8118 144.262 62.6739C144.262 59.5361 141.695 56.9924 138.529 56.9924C135.363 56.9924 132.797 59.5361 132.797 62.6739C132.797 65.8118 135.363 68.3554 138.529 68.3554Z" fill="url(#paint29_linear_1_259)"/>
</g>
<mask id="mask15_1_259" style="mask-type:alpha" maskUnits="userSpaceOnUse" x="0" y="85" width="12" height="12">
<path d="M5.7323 96.8813C8.89813 96.8813 11.4646 94.3376 11.4646 91.1998C11.4646 88.062 8.89813 85.5183 5.7323 85.5183C2.56647 85.5183 6.10352e-05 88.062 6.10352e-05 91.1998C6.10352e-05 94.3376 2.56647 96.8813 5.7323 96.8813Z" fill="url(#paint30_linear_1_259)"/>
</mask>
<g mask="url(#mask15_1_259)">
<path d="M5.7323 96.8813C8.89813 96.8813 11.4646 94.3376 11.4646 91.1998C11.4646 88.062 8.89813 85.5183 5.7323 85.5183C2.56647 85.5183 6.10352e-05 88.062 6.10352e-05 91.1998C6.10352e-05 94.3376 2.56647 96.8813 5.7323 96.8813Z" fill="url(#paint31_linear_1_259)"/>
</g>
<mask id="mask16_1_259" style="mask-type:alpha" maskUnits="userSpaceOnUse" x="33" y="85" width="12" height="12">
<path d="M38.9315 96.8813C42.0974 96.8813 44.6638 94.3376 44.6638 91.1998C44.6638 88.062 42.0974 85.5183 38.9315 85.5183C35.7657 85.5183 33.1993 88.062 33.1993 91.1998C33.1993 94.3376 35.7657 96.8813 38.9315 96.8813Z" fill="url(#paint32_linear_1_259)"/>
</mask>
<g mask="url(#mask16_1_259)">
<path d="M38.9315 96.8813C42.0974 96.8813 44.6638 94.3376 44.6638 91.1998C44.6638 88.062 42.0974 85.5183 38.9315 85.5183C35.7657 85.5183 33.1993 88.062 33.1993 91.1998C33.1993 94.3376 35.7657 96.8813 38.9315 96.8813Z" fill="url(#paint33_linear_1_259)"/>
</g>
<mask id="mask17_1_259" style="mask-type:alpha" maskUnits="userSpaceOnUse" x="66" y="85" width="12" height="12">
<path d="M72.1308 96.8813C75.2966 96.8813 77.8631 94.3376 77.8631 91.1998C77.8631 88.062 75.2966 85.5183 72.1308 85.5183C68.965 85.5183 66.3986 88.062 66.3986 91.1998C66.3986 94.3376 68.965 96.8813 72.1308 96.8813Z" fill="url(#paint34_linear_1_259)"/>
</mask>
<g mask="url(#mask17_1_259)">
<path d="M72.1308 96.8813C75.2966 96.8813 77.8631 94.3376 77.8631 91.1998C77.8631 88.062 75.2966 85.5183 72.1308 85.5183C68.965 85.5183 66.3986 88.062 66.3986 91.1998C66.3986 94.3376 68.965 96.8813 72.1308 96.8813Z" fill="url(#paint35_linear_1_259)"/>
</g>
<mask id="mask18_1_259" style="mask-type:alpha" maskUnits="userSpaceOnUse" x="99" y="85" width="13" height="12">
<path d="M105.33 96.8813C108.496 96.8813 111.062 94.3376 111.062 91.1998C111.062 88.062 108.496 85.5183 105.33 85.5183C102.164 85.5183 99.5978 88.062 99.5978 91.1998C99.5978 94.3376 102.164 96.8813 105.33 96.8813Z" fill="url(#paint36_linear_1_259)"/>
</mask>
<g mask="url(#mask18_1_259)">
<path d="M105.33 96.8813C108.496 96.8813 111.062 94.3376 111.062 91.1998C111.062 88.062 108.496 85.5183 105.33 85.5183C102.164 85.5183 99.5978 88.062 99.5978 91.1998C99.5978 94.3376 102.164 96.8813 105.33 96.8813Z" fill="url(#paint37_linear_1_259)"/>
</g>
<mask id="mask19_1_259" style="mask-type:alpha" maskUnits="userSpaceOnUse" x="132" y="85" width="13" height="12">
<path d="M138.529 96.8813C141.695 96.8813 144.262 94.3376 144.262 91.1998C144.262 88.062 141.695 85.5183 138.529 85.5183C135.363 85.5183 132.797 88.062 132.797 91.1998C132.797 94.3376 135.363 96.8813 138.529 96.8813Z" fill="url(#paint38_linear_1_259)"/>
</mask>
<g mask="url(#mask19_1_259)">
<path d="M138.529 96.8813C141.695 96.8813 144.262 94.3376 144.262 91.1998C144.262 88.062 141.695 85.5183 138.529 85.5183C135.363 85.5183 132.797 88.062 132.797 91.1998C132.797 94.3376 135.363 96.8813 138.529 96.8813Z" fill="url(#paint39_linear_1_259)"/>
</g>
<mask id="mask20_1_259" style="mask-type:alpha" maskUnits="userSpaceOnUse" x="0" y="113" width="12" height="13">
<path d="M5.7323 125.348C8.89813 125.348 11.4646 122.804 11.4646 119.666C11.4646 116.529 8.89813 113.985 5.7323 113.985C2.56647 113.985 6.10352e-05 116.529 6.10352e-05 119.666C6.10352e-05 122.804 2.56647 125.348 5.7323 125.348Z" fill="url(#paint40_linear_1_259)"/>
</mask>
<g mask="url(#mask20_1_259)">
<path d="M5.7323 125.348C8.89813 125.348 11.4646 122.804 11.4646 119.666C11.4646 116.529 8.89813 113.985 5.7323 113.985C2.56647 113.985 6.10352e-05 116.529 6.10352e-05 119.666C6.10352e-05 122.804 2.56647 125.348 5.7323 125.348Z" fill="url(#paint41_linear_1_259)"/>
</g>
<mask id="mask21_1_259" style="mask-type:alpha" maskUnits="userSpaceOnUse" x="33" y="113" width="12" height="13">
<path d="M38.9315 125.348C42.0974 125.348 44.6638 122.804 44.6638 119.666C44.6638 116.529 42.0974 113.985 38.9315 113.985C35.7657 113.985 33.1993 116.529 33.1993 119.666C33.1993 122.804 35.7657 125.348 38.9315 125.348Z" fill="url(#paint42_linear_1_259)"/>
</mask>
<g mask="url(#mask21_1_259)">
<path d="M38.9315 125.348C42.0974 125.348 44.6638 122.804 44.6638 119.666C44.6638 116.529 42.0974 113.985 38.9315 113.985C35.7657 113.985 33.1993 116.529 33.1993 119.666C33.1993 122.804 35.7657 125.348 38.9315 125.348Z" fill="url(#paint43_linear_1_259)"/>
</g>
<mask id="mask22_1_259" style="mask-type:alpha" maskUnits="userSpaceOnUse" x="66" y="113" width="12" height="13">
<path d="M72.1308 125.348C75.2966 125.348 77.8631 122.804 77.8631 119.666C77.8631 116.529 75.2966 113.985 72.1308 113.985C68.965 113.985 66.3986 116.529 66.3986 119.666C66.3986 122.804 68.965 125.348 72.1308 125.348Z" fill="url(#paint44_linear_1_259)"/>
</mask>
<g mask="url(#mask22_1_259)">
<path d="M72.1308 125.348C75.2966 125.348 77.8631 122.804 77.8631 119.666C77.8631 116.529 75.2966 113.985 72.1308 113.985C68.965 113.985 66.3986 116.529 66.3986 119.666C66.3986 122.804 68.965 125.348 72.1308 125.348Z" fill="url(#paint45_linear_1_259)"/>
</g>
<mask id="mask23_1_259" style="mask-type:alpha" maskUnits="userSpaceOnUse" x="99" y="113" width="13" height="13">
<path d="M105.33 125.348C108.496 125.348 111.062 122.804 111.062 119.666C111.062 116.529 108.496 113.985 105.33 113.985C102.164 113.985 99.5978 116.529 99.5978 119.666C99.5978 122.804 102.164 125.348 105.33 125.348Z" fill="url(#paint46_linear_1_259)"/>
</mask>
<g mask="url(#mask23_1_259)">
<path d="M105.33 125.348C108.496 125.348 111.062 122.804 111.062 119.666C111.062 116.529 108.496 113.985 105.33 113.985C102.164 113.985 99.5978 116.529 99.5978 119.666C99.5978 122.804 102.164 125.348 105.33 125.348Z" fill="url(#paint47_linear_1_259)"/>
</g>
<mask id="mask24_1_259" style="mask-type:alpha" maskUnits="userSpaceOnUse" x="132" y="113" width="13" height="13">
<path d="M138.529 125.348C141.695 125.348 144.262 122.804 144.262 119.666C144.262 116.529 141.695 113.985 138.529 113.985C135.363 113.985 132.797 116.529 132.797 119.666C132.797 122.804 135.363 125.348 138.529 125.348Z" fill="url(#paint48_linear_1_259)"/>
</mask>
<g mask="url(#mask24_1_259)">
<path d="M138.529 125.348C141.695 125.348 144.262 122.804 144.262 119.666C144.262 116.529 141.695 113.985 138.529 113.985C135.363 113.985 132.797 116.529 132.797 119.666C132.797 122.804 135.363 125.348 138.529 125.348Z" fill="url(#paint49_linear_1_259)"/>
</g>
</g>
<defs>
<linearGradient id="paint0_linear_1_259" x1="60.296" y1="142.933" x2="-17.1974" y2="-55.5376" gradientUnits="userSpaceOnUse">
<stop offset="0.657932" stop-color="#052BF8"/>
<stop offset="1" stop-color="white"/>
</linearGradient>
<linearGradient id="paint1_linear_1_259" x1="60.296" y1="142.933" x2="-17.1974" y2="-55.5376" gradientUnits="userSpaceOnUse">
<stop offset="0.657932" stop-color="#052BF8"/>
<stop offset="1" stop-color="white"/>
</linearGradient>
<linearGradient id="paint2_linear_1_259" x1="93.4954" y1="142.933" x2="16.002" y2="-55.5376" gradientUnits="userSpaceOnUse">
<stop offset="0.657932" stop-color="#052BF8"/>
<stop offset="1" stop-color="white"/>
</linearGradient>
<linearGradient id="paint3_linear_1_259" x1="93.4954" y1="142.933" x2="16.002" y2="-55.5376" gradientUnits="userSpaceOnUse">
<stop offset="0.657932" stop-color="#052BF8"/>
<stop offset="1" stop-color="white"/>
</linearGradient>
<linearGradient id="paint4_linear_1_259" x1="126.695" y1="142.933" x2="49.2013" y2="-55.5376" gradientUnits="userSpaceOnUse">
<stop offset="0.657932" stop-color="#052BF8"/>
<stop offset="1" stop-color="white"/>
</linearGradient>
<linearGradient id="paint5_linear_1_259" x1="126.695" y1="142.933" x2="49.2013" y2="-55.5376" gradientUnits="userSpaceOnUse">
<stop offset="0.657932" stop-color="#052BF8"/>
<stop offset="1" stop-color="white"/>
</linearGradient>
<linearGradient id="paint6_linear_1_259" x1="159.894" y1="142.933" x2="82.4006" y2="-55.5376" gradientUnits="userSpaceOnUse">
<stop offset="0.657932" stop-color="#052BF8"/>
<stop offset="1" stop-color="white"/>
</linearGradient>
<linearGradient id="paint7_linear_1_259" x1="159.894" y1="142.933" x2="82.4006" y2="-55.5376" gradientUnits="userSpaceOnUse">
<stop offset="0.657932" stop-color="#052BF8"/>
<stop offset="1" stop-color="white"/>
</linearGradient>
<linearGradient id="paint8_linear_1_259" x1="193.093" y1="142.933" x2="115.6" y2="-55.5376" gradientUnits="userSpaceOnUse">
<stop offset="0.657932" stop-color="#052BF8"/>
<stop offset="1" stop-color="white"/>
</linearGradient>
<linearGradient id="paint9_linear_1_259" x1="193.093" y1="142.933" x2="115.6" y2="-55.5376" gradientUnits="userSpaceOnUse">
<stop offset="0.657932" stop-color="#052BF8"/>
<stop offset="1" stop-color="white"/>
</linearGradient>
<linearGradient id="paint10_linear_1_259" x1="60.2961" y1="171.458" x2="-17.196" y2="-27.0117" gradientUnits="userSpaceOnUse">
<stop offset="0.657932" stop-color="#052BF8"/>
<stop offset="1" stop-color="white"/>
</linearGradient>
<linearGradient id="paint11_linear_1_259" x1="60.2961" y1="171.458" x2="-17.196" y2="-27.0117" gradientUnits="userSpaceOnUse">
<stop offset="0.657932" stop-color="#052BF8"/>
<stop offset="1" stop-color="white"/>
</linearGradient>
<linearGradient id="paint12_linear_1_259" x1="93.4954" y1="171.458" x2="16.0034" y2="-27.0117" gradientUnits="userSpaceOnUse">
<stop offset="0.657932" stop-color="#052BF8"/>
<stop offset="1" stop-color="white"/>
</linearGradient>
<linearGradient id="paint13_linear_1_259" x1="93.4954" y1="171.458" x2="16.0034" y2="-27.0117" gradientUnits="userSpaceOnUse">
<stop offset="0.657932" stop-color="#052BF8"/>
<stop offset="1" stop-color="white"/>
</linearGradient>
<linearGradient id="paint14_linear_1_259" x1="126.695" y1="171.458" x2="49.2026" y2="-27.0117" gradientUnits="userSpaceOnUse">
<stop offset="0.657932" stop-color="#052BF8"/>
<stop offset="1" stop-color="white"/>
</linearGradient>
<linearGradient id="paint15_linear_1_259" x1="126.695" y1="171.458" x2="49.2026" y2="-27.0117" gradientUnits="userSpaceOnUse">
<stop offset="0.657932" stop-color="#052BF8"/>
<stop offset="1" stop-color="white"/>
</linearGradient>
<linearGradient id="paint16_linear_1_259" x1="159.894" y1="171.458" x2="82.4019" y2="-27.0117" gradientUnits="userSpaceOnUse">
<stop offset="0.657932" stop-color="#052BF8"/>
<stop offset="1" stop-color="white"/>
</linearGradient>
<linearGradient id="paint17_linear_1_259" x1="159.894" y1="171.458" x2="82.4019" y2="-27.0117" gradientUnits="userSpaceOnUse">
<stop offset="0.657932" stop-color="#052BF8"/>
<stop offset="1" stop-color="white"/>
</linearGradient>
<linearGradient id="paint18_linear_1_259" x1="193.093" y1="171.458" x2="115.601" y2="-27.0117" gradientUnits="userSpaceOnUse">
<stop offset="0.657932" stop-color="#052BF8"/>
<stop offset="1" stop-color="white"/>
</linearGradient>
<linearGradient id="paint19_linear_1_259" x1="193.093" y1="171.458" x2="115.601" y2="-27.0117" gradientUnits="userSpaceOnUse">
<stop offset="0.657932" stop-color="#052BF8"/>
<stop offset="1" stop-color="white"/>
</linearGradient>
<linearGradient id="paint20_linear_1_259" x1="60.2961" y1="199.926" x2="-17.1973" y2="1.45486" gradientUnits="userSpaceOnUse">
<stop offset="0.657932" stop-color="#052BF8"/>
<stop offset="1" stop-color="white"/>
</linearGradient>
<linearGradient id="paint21_linear_1_259" x1="60.2961" y1="199.926" x2="-17.1973" y2="1.45486" gradientUnits="userSpaceOnUse">
<stop offset="0.657932" stop-color="#052BF8"/>
<stop offset="1" stop-color="white"/>
</linearGradient>
<linearGradient id="paint22_linear_1_259" x1="93.4954" y1="199.926" x2="16.002" y2="1.4548" gradientUnits="userSpaceOnUse">
<stop offset="0.657932" stop-color="#052BF8"/>
<stop offset="1" stop-color="white"/>
</linearGradient>
<linearGradient id="paint23_linear_1_259" x1="93.4954" y1="199.926" x2="16.002" y2="1.4548" gradientUnits="userSpaceOnUse">
<stop offset="0.657932" stop-color="#052BF8"/>
<stop offset="1" stop-color="white"/>
</linearGradient>
<linearGradient id="paint24_linear_1_259" x1="126.695" y1="199.926" x2="49.2013" y2="1.4548" gradientUnits="userSpaceOnUse">
<stop offset="0.657932" stop-color="#052BF8"/>
<stop offset="1" stop-color="white"/>
</linearGradient>
<linearGradient id="paint25_linear_1_259" x1="126.695" y1="199.926" x2="49.2013" y2="1.4548" gradientUnits="userSpaceOnUse">
<stop offset="0.657932" stop-color="#052BF8"/>
<stop offset="1" stop-color="white"/>
</linearGradient>
<linearGradient id="paint26_linear_1_259" x1="159.894" y1="199.926" x2="82.4006" y2="1.4548" gradientUnits="userSpaceOnUse">
<stop offset="0.657932" stop-color="#052BF8"/>
<stop offset="1" stop-color="white"/>
</linearGradient>
<linearGradient id="paint27_linear_1_259" x1="159.894" y1="199.926" x2="82.4006" y2="1.4548" gradientUnits="userSpaceOnUse">
<stop offset="0.657932" stop-color="#052BF8"/>
<stop offset="1" stop-color="white"/>
</linearGradient>
<linearGradient id="paint28_linear_1_259" x1="193.093" y1="199.926" x2="115.6" y2="1.4548" gradientUnits="userSpaceOnUse">
<stop offset="0.657932" stop-color="#052BF8"/>
<stop offset="1" stop-color="white"/>
</linearGradient>
<linearGradient id="paint29_linear_1_259" x1="193.093" y1="199.926" x2="115.6" y2="1.4548" gradientUnits="userSpaceOnUse">
<stop offset="0.657932" stop-color="#052BF8"/>
<stop offset="1" stop-color="white"/>
</linearGradient>
<linearGradient id="paint30_linear_1_259" x1="60.2961" y1="228.452" x2="-17.1973" y2="29.9807" gradientUnits="userSpaceOnUse">
<stop offset="0.657932" stop-color="#052BF8"/>
<stop offset="1" stop-color="white"/>
</linearGradient>
<linearGradient id="paint31_linear_1_259" x1="60.2961" y1="228.452" x2="-17.1973" y2="29.9807" gradientUnits="userSpaceOnUse">
<stop offset="0.657932" stop-color="#052BF8"/>
<stop offset="1" stop-color="white"/>
</linearGradient>
<linearGradient id="paint32_linear_1_259" x1="93.4954" y1="228.452" x2="16.002" y2="29.9807" gradientUnits="userSpaceOnUse">
<stop offset="0.657932" stop-color="#052BF8"/>
<stop offset="1" stop-color="white"/>
</linearGradient>
<linearGradient id="paint33_linear_1_259" x1="93.4954" y1="228.452" x2="16.002" y2="29.9807" gradientUnits="userSpaceOnUse">
<stop offset="0.657932" stop-color="#052BF8"/>
<stop offset="1" stop-color="white"/>
</linearGradient>
<linearGradient id="paint34_linear_1_259" x1="126.695" y1="228.452" x2="49.2013" y2="29.9807" gradientUnits="userSpaceOnUse">
<stop offset="0.657932" stop-color="#052BF8"/>
<stop offset="1" stop-color="white"/>
</linearGradient>
<linearGradient id="paint35_linear_1_259" x1="126.695" y1="228.452" x2="49.2013" y2="29.9807" gradientUnits="userSpaceOnUse">
<stop offset="0.657932" stop-color="#052BF8"/>
<stop offset="1" stop-color="white"/>
</linearGradient>
<linearGradient id="paint36_linear_1_259" x1="159.894" y1="228.452" x2="82.4006" y2="29.9807" gradientUnits="userSpaceOnUse">
<stop offset="0.657932" stop-color="#052BF8"/>
<stop offset="1" stop-color="white"/>
</linearGradient>
<linearGradient id="paint37_linear_1_259" x1="159.894" y1="228.452" x2="82.4006" y2="29.9807" gradientUnits="userSpaceOnUse">
<stop offset="0.657932" stop-color="#052BF8"/>
<stop offset="1" stop-color="white"/>
</linearGradient>
<linearGradient id="paint38_linear_1_259" x1="193.093" y1="228.452" x2="115.6" y2="29.9807" gradientUnits="userSpaceOnUse">
<stop offset="0.657932" stop-color="#052BF8"/>
<stop offset="1" stop-color="white"/>
</linearGradient>
<linearGradient id="paint39_linear_1_259" x1="193.093" y1="228.452" x2="115.6" y2="29.9807" gradientUnits="userSpaceOnUse">
<stop offset="0.657932" stop-color="#052BF8"/>
<stop offset="1" stop-color="white"/>
</linearGradient>
<linearGradient id="paint40_linear_1_259" x1="60.2961" y1="256.918" x2="-17.1973" y2="58.4473" gradientUnits="userSpaceOnUse">
<stop offset="0.657932" stop-color="#052BF8"/>
<stop offset="1" stop-color="white"/>
</linearGradient>
<linearGradient id="paint41_linear_1_259" x1="60.2961" y1="256.918" x2="-17.1973" y2="58.4473" gradientUnits="userSpaceOnUse">
<stop offset="0.657932" stop-color="#052BF8"/>
<stop offset="1" stop-color="white"/>
</linearGradient>
<linearGradient id="paint42_linear_1_259" x1="93.4954" y1="256.918" x2="16.002" y2="58.4472" gradientUnits="userSpaceOnUse">
<stop offset="0.657932" stop-color="#052BF8"/>
<stop offset="1" stop-color="white"/>
</linearGradient>
<linearGradient id="paint43_linear_1_259" x1="93.4954" y1="256.918" x2="16.002" y2="58.4472" gradientUnits="userSpaceOnUse">
<stop offset="0.657932" stop-color="#052BF8"/>
<stop offset="1" stop-color="white"/>
</linearGradient>
<linearGradient id="paint44_linear_1_259" x1="126.695" y1="256.918" x2="49.2013" y2="58.4472" gradientUnits="userSpaceOnUse">
<stop offset="0.657932" stop-color="#052BF8"/>
<stop offset="1" stop-color="white"/>
</linearGradient>
<linearGradient id="paint45_linear_1_259" x1="126.695" y1="256.918" x2="49.2013" y2="58.4472" gradientUnits="userSpaceOnUse">
<stop offset="0.657932" stop-color="#052BF8"/>
<stop offset="1" stop-color="white"/>
</linearGradient>
<linearGradient id="paint46_linear_1_259" x1="159.894" y1="256.918" x2="82.4006" y2="58.4472" gradientUnits="userSpaceOnUse">
<stop offset="0.657932" stop-color="#052BF8"/>
<stop offset="1" stop-color="white"/>
</linearGradient>
<linearGradient id="paint47_linear_1_259" x1="159.894" y1="256.918" x2="82.4006" y2="58.4472" gradientUnits="userSpaceOnUse">
<stop offset="0.657932" stop-color="#052BF8"/>
<stop offset="1" stop-color="white"/>
</linearGradient>
<linearGradient id="paint48_linear_1_259" x1="193.093" y1="256.918" x2="115.6" y2="58.4472" gradientUnits="userSpaceOnUse">
<stop offset="0.657932" stop-color="#052BF8"/>
<stop offset="1" stop-color="white"/>
</linearGradient>
<linearGradient id="paint49_linear_1_259" x1="193.093" y1="256.918" x2="115.6" y2="58.4472" gradientUnits="userSpaceOnUse">
<stop offset="0.657932" stop-color="#052BF8"/>
<stop offset="1" stop-color="white"/>
</linearGradient>
</defs>
</svg>
